<svg width="512" height="512" viewBox="0 0 512 512" fill="none" xmlns="http://www.w3.org/2000/svg">
<path fill-rule="evenodd" clip-rule="evenodd" d="M105.524 295.946C113.145 289.842 122.692 287.88 132.676 290.367C137.118 291.473 142.467 294.74 146.191 298.62C152.821 305.529 155.928 314.989 155.313 326.399C154.553 340.525 148.54 351.491 138.467 357.122C126.715 363.69 112.19 362.197 104.839 353.667L103.394 351.99L103.377 366.065C103.362 378.617 103.224 380.437 102.108 382.881C99.1198 389.424 88.421 389.929 84.2505 383.724L82.7897 381.55L82.7941 338.939C82.7979 298.563 82.8607 296.236 83.989 294.535C88.614 287.563 99.9793 289.005 101.221 296.722L101.601 299.087L105.524 295.946ZM125.758 308.315C122.033 306.466 115.707 306.388 112.352 308.15C106.022 311.476 103.088 317.708 103.502 326.946C103.726 331.931 104.046 333.31 105.668 336.266C108.795 341.965 114.517 345.129 120.091 344.243C121.533 344.014 124.227 342.928 126.079 341.828C136.934 335.38 136.728 313.76 125.758 308.315Z" fill="#33524D"/>
<path d="M446.716 297.216C447.877 291.447 454.393 288.243 460.702 290.338C465.44 291.912 465.981 292.95 472.81 313.568C476.312 324.143 479.381 333.759 479.629 334.939C479.876 336.117 480.291 336.837 480.552 336.538C480.812 336.237 482.27 331.675 483.792 326.399C491.169 300.828 493.371 294.518 495.666 292.38C501.22 287.205 510.984 290.08 511.941 297.172C512.299 299.828 511.597 301.901 493.07 352.831C485.438 373.813 481.62 379.583 472.36 384.133C467.735 386.406 467.128 386.538 461.316 386.538C454.149 386.538 451.548 385.68 449.7 382.708C448.151 380.217 448.054 377.422 449.403 374.211C451.231 369.863 452.61 368.944 457.313 368.944C462.82 368.944 466.13 367.096 468.555 362.668C469.51 360.922 470.292 359.006 470.293 358.409C470.293 357.516 461.439 335.511 448.695 304.731C447.05 300.758 446.457 298.505 446.716 297.216Z" fill="#33524D"/>
<path fill-rule="evenodd" clip-rule="evenodd" d="M235.2 291.761C242.719 288.947 250.358 288.596 258.788 290.68C270.885 293.671 280.432 303.284 283.296 315.356C285.399 324.22 283.932 335.457 279.615 343.545C271.045 359.602 248.736 366.001 231.131 357.451C222.801 353.406 217.218 346.955 213.947 337.595C211.838 331.561 211.847 319.302 213.964 313.213C217.504 303.037 224.82 295.646 235.2 291.761ZM259.499 312.567C255.443 307.014 247.791 305.204 241.722 308.361C238.489 310.044 235.105 314.538 233.997 318.621C232.831 322.919 233.544 332.262 235.298 335.676C238.534 341.973 242.322 344.251 248.94 343.88C254.951 343.542 258.045 341.407 261.001 335.558C262.857 331.885 263.175 330.575 263.254 326.281C263.366 320.193 262.344 316.462 259.499 312.567Z" fill="#33524D"/>
<path d="M343.57 290.15C347.025 289.122 351.475 290.264 354.106 292.853L356.037 294.754L356.217 324.488C356.415 357.39 356.476 356.845 352.305 359.373C349.829 360.874 344.859 361.035 342.261 359.7C340.171 358.625 338.336 356.103 338.336 354.304C338.336 350.973 337.647 350.943 334.146 354.123C329.233 358.587 324.338 360.744 318.276 361.12C305.702 361.898 296.566 355.054 293.625 342.658C292.861 339.435 292.651 334.026 292.645 317.442C292.638 297.39 292.704 296.223 293.937 294.213C296.585 289.896 304.535 288.325 308.573 291.321C309.498 292.008 310.853 293.364 311.583 294.335C312.685 295.801 312.887 296.864 313.125 310.266L313.339 323.339C313.576 336.742 313.779 337.804 314.881 339.27C317.323 342.517 319.492 343.673 323.146 343.673C327.666 343.673 332.152 340.985 334.262 337.015C335.726 334.26 335.761 333.785 335.765 316.542C335.767 306.476 336.051 297.876 336.427 296.531C337.216 293.707 340.012 291.21 343.57 290.15Z" fill="#33524D"/>
<path d="M378.901 273.138C382.342 271.39 384.788 271.339 388.332 272.938C392.473 274.806 393.307 276.598 393.591 284.228L393.835 290.773L399.828 290.992C405.131 291.186 406.015 291.391 407.493 292.773C411.258 296.291 411.093 302.581 407.15 305.879C405.355 307.38 404.671 307.525 399.407 307.525H393.632L394.015 340.906L395.891 342.509C397.602 343.971 398.2 344.094 402.65 343.893L407.533 343.673L409.377 347.339C413.743 356.019 408.404 360.944 394.659 360.916C389.092 360.905 387.744 360.679 384.682 359.247C378.414 356.315 375.097 351.967 373.797 344.975C373.404 342.86 373.095 333.789 373.095 324.362V307.525H370.57C365.825 307.525 362.387 302.852 363.248 297.575C363.716 294.711 366.998 291.803 370.41 291.23L372.977 290.799L373.198 284.492C373.452 277.167 374.304 275.473 378.901 273.138Z" fill="#33524D"/>
<path d="M31.4187 265.312C36.8714 264.561 45.9316 265.146 51.7453 266.624C58.4395 268.326 63.8351 270.883 66.0712 273.414C68.6041 276.282 68.7069 280.278 66.3503 284.274C63.3997 289.278 59.2376 290.204 53.6531 287.098C48.5177 284.243 42.92 283.043 36.0943 283.334C29.481 283.615 26.7768 284.762 24.3764 288.302C21.4684 292.591 23.0237 296.66 28.656 299.496C30.321 300.335 36.7376 302.32 42.914 303.907C56.5661 307.415 61.7539 309.635 66.3151 313.923C79.2873 326.117 74.2353 348.76 56.7327 356.869C49.5061 360.217 45.4798 360.934 34.1909 360.883C22.213 360.828 17.0131 359.746 8.31553 355.498C2.87385 352.84 0.866474 350.878 0.146797 347.511C-0.797498 343.097 2.94118 337.53 7.70579 336.255C10.0473 335.628 10.5951 335.767 15.2302 338.172C22.8759 342.138 28.8605 343.545 36.7134 343.227C46.6906 342.822 51.2487 339.863 51.2487 333.789C51.2487 331.35 50.921 330.492 49.4786 329.15C46.6637 326.533 44.2175 325.584 32.4169 322.53C14.7959 317.971 7.29167 313.477 3.12953 304.991C1.56538 301.802 1.3905 300.741 1.37698 294.379C1.36346 287.483 1.42165 287.192 3.78643 282.434C8.48925 272.972 17.8342 267.181 31.4187 265.312Z" fill="#33524D"/>
<path d="M186.559 299.046C191.397 291.795 200.863 287.737 206.354 290.559C209.383 292.116 210.885 294.537 210.881 297.855C210.876 302.073 209.843 305.209 207.714 307.475C206.186 309.1 205.364 309.445 203.017 309.445C196.633 309.445 190.389 313.269 187.607 318.883C186.18 321.765 186.086 322.763 185.78 338.35C185.482 353.59 185.364 354.905 184.151 356.519C182.23 359.073 178.869 360.627 175.267 360.627C171.27 360.627 168.131 359.139 166.462 356.455C165.178 354.391 165.149 353.599 165.324 324.585L165.504 294.832L167.113 293.1C170.307 289.663 174.746 288.752 178.654 290.733C181.833 292.344 183.303 294.701 183.767 298.935L184.171 302.626L186.559 299.046Z" fill="#33524D"/>
<path d="M418.841 265.502C421.073 259.646 427.786 257.305 433.594 260.358C439.038 263.22 438.752 260.483 438.752 309.615C438.752 356.539 438.831 355.416 435.263 358.688C433.866 359.969 432.722 360.313 429.226 360.503C425.528 360.704 424.591 360.523 422.659 359.23C417.953 356.081 418.155 358.277 418.155 310.286C418.154 281.393 418.379 266.715 418.841 265.502Z" fill="#33524D"/>
<path d="M279.501 138.071C294.936 127.09 314.7 121.94 331.255 124.588C333.556 124.956 337.395 125.697 339.784 126.235L344.129 127.211L344.126 132.758C344.117 153.292 335.229 172.639 320.736 183.672C315.664 187.534 307.312 191.68 301.323 193.31C293.911 195.327 274.901 195.161 271.461 193.048C269.686 191.958 274.101 180.778 279.422 172.885C286.022 163.095 294.382 155.872 305.827 150.067C312.21 146.829 312.928 146.289 313.102 144.596C313.232 143.328 312.856 142.325 311.947 141.506C310.732 140.414 310.301 140.372 307.57 141.087C302.888 142.313 293.405 147.128 288.771 150.631C276.805 159.679 268.876 171.056 265.522 183.989C264.364 188.452 264.265 191.053 264.3 215.998C264.321 230.928 264.447 243.253 264.582 243.391C264.717 243.524 268.115 242.597 272.132 241.329C288.107 236.29 305.687 233.918 317.736 235.177C331.734 236.64 345.743 241.449 353.784 247.552C359.911 252.202 356.786 261.462 349.091 261.462C347.627 261.462 345.211 260.447 341.744 258.376C335.504 254.649 328.147 252.139 319.783 250.887C305.138 248.692 292.156 250.724 264.633 259.515C231.676 270.042 215.246 271.595 194.177 266.174C183.977 263.549 166.995 254.568 164.191 250.316C161.588 246.368 162.926 241.239 167.163 238.925C170.338 237.19 172.904 237.831 178.103 241.662C186.182 247.615 195.896 251.579 206.379 253.2C216.488 254.763 234.904 252.935 246.122 249.255L248.219 248.567V219.303C248.219 186.934 248.225 186.995 243.969 178.931C238.385 168.351 227.45 159.401 214.654 154.938C209.445 153.121 207.769 153.288 206.469 155.754C205.751 157.117 206.659 159.737 207.848 159.737C209.656 159.738 221.107 165.965 225.082 169.11C231.237 173.978 237.424 181.808 239.837 187.786C240.912 190.45 240.622 190.671 234.133 192.115C230.541 192.914 227.477 193.092 221.581 192.843C212.529 192.461 206.076 190.705 199.319 186.785C194.298 183.872 186.818 176.72 183.734 171.884C179.612 165.419 176.575 156.444 175.772 148.358L175.338 143.972L178.145 142.91C188.404 139.027 203.166 137.569 213.159 139.449C228.296 142.297 244.048 152.58 251.995 164.802L254.586 168.787L256.302 165.382C261.315 155.43 270.805 144.258 279.501 138.071Z" fill="#33524D"/>
</svg>
