<svg width="192" height="192" viewBox="0 0 192 192" fill="none" xmlns="http://www.w3.org/2000/svg">
<path fill-rule="evenodd" clip-rule="evenodd" d="M39.5717 110.98C42.4294 108.691 46.0096 107.955 49.7534 108.888C51.4192 109.302 53.4252 110.528 54.8216 111.983C57.3078 114.574 58.473 118.121 58.2425 122.4C57.9574 127.697 55.7024 131.809 51.925 133.921C47.5183 136.384 42.0711 135.824 39.3147 132.625L38.7728 131.996L38.7664 137.274C38.7606 141.981 38.7091 142.664 38.2905 143.58C37.1699 146.034 33.1579 146.223 31.5939 143.896L31.0461 143.081L31.0478 127.102C31.0492 111.961 31.0728 111.088 31.4959 110.451C33.2302 107.836 37.4922 108.377 37.9579 111.271L38.1005 112.157L39.5717 110.98ZM47.1593 115.618C45.7624 114.925 43.39 114.895 42.1321 115.556C39.7584 116.804 38.6581 119.14 38.8133 122.605C38.8971 124.474 39.0172 124.991 39.6254 126.1C40.7983 128.237 42.9438 129.423 45.0342 129.091C45.5749 129.005 46.5853 128.598 47.2795 128.185C51.3504 125.768 51.2729 117.66 47.1593 115.618Z" fill="#33524D"/>
<path d="M167.519 111.456C167.954 109.292 170.397 108.091 172.763 108.877C174.54 109.467 174.743 109.856 177.304 117.588C178.617 121.554 179.768 125.16 179.861 125.602C179.953 126.044 180.109 126.314 180.207 126.202C180.305 126.089 180.851 124.378 181.422 122.4C184.188 112.81 185.014 110.444 185.875 109.642C187.958 107.702 191.619 108.78 191.978 111.44C192.112 112.436 191.849 113.213 184.901 132.312C182.039 140.18 180.608 142.344 177.135 144.05C175.4 144.902 175.173 144.952 172.993 144.952C170.306 144.952 169.331 144.63 168.638 143.515C168.057 142.581 168.02 141.533 168.526 140.329C169.212 138.699 169.729 138.354 171.492 138.354C173.557 138.354 174.799 137.661 175.708 136C176.066 135.346 176.36 134.627 176.36 134.403C176.36 134.068 173.04 125.817 168.261 114.274C167.644 112.784 167.421 111.939 167.519 111.456Z" fill="#33524D"/>
<path fill-rule="evenodd" clip-rule="evenodd" d="M88.2001 109.41C91.0197 108.355 93.8844 108.224 97.0455 109.005C101.582 110.127 105.162 113.731 106.236 118.259C107.025 121.583 106.474 125.796 104.856 128.829C101.642 134.851 93.2761 137.25 86.6742 134.044C83.5502 132.527 81.4569 130.108 80.2302 126.598C79.4394 124.335 79.4426 119.738 80.2365 117.455C81.5641 113.639 84.3073 110.867 88.2001 109.41ZM97.3121 117.213C95.7912 115.13 92.9215 114.452 90.6458 115.636C89.4333 116.266 88.1644 117.952 87.7489 119.483C87.3118 121.095 87.5791 124.598 88.2369 125.878C89.4501 128.24 90.8707 129.094 93.3524 128.955C95.6066 128.828 96.7669 128.028 97.8755 125.834C98.5714 124.457 98.6907 123.965 98.7204 122.355C98.7621 120.072 98.379 118.673 97.3121 117.213Z" fill="#33524D"/>
<path d="M128.839 108.806C130.134 108.421 131.803 108.849 132.79 109.82L133.514 110.533L133.581 121.683C133.656 134.021 133.679 133.817 132.114 134.765C131.186 135.328 129.322 135.388 128.348 134.887C127.564 134.485 126.876 133.539 126.876 132.864C126.876 131.615 126.618 131.603 125.305 132.796C123.462 134.47 121.627 135.279 119.353 135.42C114.638 135.712 111.212 133.145 110.11 128.497C109.823 127.288 109.744 125.26 109.742 119.041C109.739 111.521 109.764 111.084 110.226 110.33C111.219 108.711 114.201 108.122 115.715 109.245C116.062 109.503 116.57 110.011 116.844 110.376C117.257 110.925 117.333 111.324 117.422 116.35L117.502 121.252C117.591 126.278 117.667 126.677 118.08 127.226C118.996 128.444 119.809 128.877 121.18 128.877C122.875 128.877 124.557 127.87 125.348 126.38C125.897 125.348 125.91 125.169 125.912 118.703C125.912 114.928 126.019 111.704 126.16 111.199C126.456 110.14 127.504 109.204 128.839 108.806Z" fill="#33524D"/>
<path d="M142.088 102.427C143.378 101.771 144.296 101.752 145.625 102.352C147.177 103.052 147.49 103.724 147.597 106.585L147.688 109.04L149.936 109.122C151.924 109.195 152.256 109.272 152.81 109.79C154.222 111.109 154.16 113.468 152.681 114.704C152.008 115.267 151.752 115.322 149.777 115.322H147.612L147.756 127.84L148.459 128.441C149.101 128.989 149.325 129.035 150.994 128.96L152.825 128.877L153.516 130.252C155.154 133.507 153.151 135.354 147.997 135.344C145.909 135.339 145.404 135.255 144.256 134.717C141.905 133.618 140.662 131.988 140.174 129.366C140.026 128.573 139.911 125.171 139.911 121.636V115.322H138.964C137.185 115.322 135.895 113.569 136.218 111.59C136.393 110.517 137.624 109.426 138.904 109.211L139.867 109.05L139.949 106.685C140.045 103.938 140.364 103.302 142.088 102.427Z" fill="#33524D"/>
<path d="M11.782 99.4918C13.8268 99.2104 17.2243 99.4299 19.4045 99.9841C21.9148 100.622 23.9382 101.581 24.7767 102.53C25.7265 103.606 25.7651 105.104 24.8814 106.603C23.7749 108.479 22.2141 108.826 20.1199 107.662C18.1942 106.591 16.095 106.141 13.5353 106.25C11.0554 106.356 10.0413 106.786 9.14116 108.113C8.05063 109.721 8.6339 111.247 10.746 112.311C11.3704 112.625 13.7766 113.37 16.0928 113.965C21.2123 115.281 23.1577 116.113 24.8682 117.721C29.7327 122.294 27.8382 130.785 21.2748 133.826C18.5648 135.081 17.0549 135.35 12.8216 135.331C8.32989 135.31 6.3799 134.905 3.11833 133.312C1.0777 132.315 0.324928 131.579 0.0550491 130.317C-0.299062 128.661 1.10294 126.574 2.88967 126.096C3.76775 125.86 3.97318 125.913 5.71133 126.814C8.57847 128.302 10.8227 128.829 13.7675 128.71C17.509 128.558 19.2182 127.448 19.2183 125.171C19.2183 124.256 19.0954 123.934 18.5545 123.431C17.4989 122.45 16.5816 122.094 12.1563 120.949C5.54848 119.239 2.73438 117.554 1.17358 114.372C0.587016 113.176 0.521438 112.778 0.516367 110.392C0.511298 107.806 0.53312 107.697 1.41991 105.913C3.18347 102.364 6.68783 100.193 11.782 99.4918Z" fill="#33524D"/>
<path d="M69.9597 112.142C71.7738 109.423 75.3236 107.901 77.3826 108.96C78.5185 109.543 79.0819 110.451 79.0803 111.696C79.0783 113.277 78.6911 114.453 77.8927 115.303C77.3199 115.913 77.0116 116.042 76.1313 116.042C73.7375 116.042 71.3957 117.476 70.3527 119.581C69.8173 120.662 69.7821 121.036 69.6677 126.881C69.5557 132.596 69.5115 133.089 69.0564 133.695C68.3361 134.652 67.0759 135.235 65.7251 135.235C64.2262 135.235 63.0493 134.677 62.4231 133.671C61.9418 132.896 61.931 132.6 61.9966 121.719L62.0641 110.562L62.6675 109.912C63.865 108.624 65.5298 108.282 66.9952 109.025C68.1874 109.629 68.7386 110.513 68.9126 112.101L69.0642 113.485L69.9597 112.142Z" fill="#33524D"/>
<path d="M157.065 99.5633C157.902 97.3671 160.42 96.4895 162.598 97.6343C164.639 98.7074 164.532 97.6811 164.532 116.106C164.532 133.702 164.562 133.281 163.224 134.508C162.7 134.988 162.271 135.117 160.96 135.189C159.573 135.264 159.222 135.196 158.497 134.711C156.733 133.53 156.808 134.354 156.808 116.357C156.808 105.522 156.892 100.018 157.065 99.5633Z" fill="#33524D"/>
<path d="M104.813 51.7765C110.601 47.6585 118.012 45.7276 124.221 46.7206C125.084 46.8586 126.523 47.1365 127.419 47.338L129.048 47.7042L129.047 49.7843C129.044 57.4846 125.711 64.7397 120.276 68.877C118.374 70.3251 115.242 71.8799 112.996 72.4912C110.217 73.2476 103.088 73.1852 101.798 72.393C101.132 71.9842 102.788 67.7915 104.783 64.8319C107.258 61.1608 110.393 58.4521 114.685 56.2751C117.079 55.0609 117.348 54.8584 117.413 54.2236C117.462 53.7479 117.321 53.3717 116.98 53.0646C116.525 52.6551 116.363 52.6394 115.339 52.9076C113.583 53.3673 110.027 55.1729 108.289 56.4867C103.802 59.8796 100.828 64.1459 99.5706 68.996C99.1364 70.6696 99.0993 71.6447 99.1124 80.9991C99.1203 86.5978 99.1678 91.2198 99.2182 91.2714C99.269 91.3214 100.543 90.9737 102.05 90.4985C108.04 88.6087 114.633 87.7192 119.151 88.1914C124.4 88.7398 129.654 90.5433 132.669 92.832C134.967 94.5757 133.795 98.0481 130.909 98.0481C130.36 98.0481 129.454 97.6675 128.154 96.8909C125.814 95.4932 123.055 94.5522 119.919 94.0825C114.427 93.2596 109.558 94.0214 99.2373 97.318C86.8784 101.266 80.7173 101.848 72.8165 99.8154C68.9913 98.831 62.623 95.463 61.5716 93.8685C60.5955 92.388 61.0974 90.4647 62.6861 89.5967C63.8769 88.9463 64.8388 89.1867 66.7885 90.6234C69.8181 92.8558 73.4611 94.3421 77.392 94.9498C81.1832 95.5359 88.089 94.8505 92.2956 93.4705L93.082 93.2125V82.2387C93.082 70.1003 93.0845 70.1233 91.4885 67.099C89.3945 63.1315 85.2938 59.7753 80.4953 58.1017C78.5418 57.4203 77.9133 57.483 77.4259 58.4076C77.1567 58.9187 77.4971 59.9015 77.9431 59.9015C78.6211 59.9016 82.9151 62.2367 84.4058 63.4161C86.7139 65.2416 89.0339 68.1781 89.9388 70.4198C90.3421 71.4188 90.2332 71.5015 87.7998 72.043C86.4529 72.3427 85.3039 72.4093 83.0928 72.316C79.6983 72.1727 77.2783 71.5142 74.7445 70.0443C72.8618 68.9519 70.0569 66.2699 68.9004 64.4564C67.3543 62.032 66.2154 58.6664 65.9147 55.6343L65.7518 53.9893L66.8043 53.591C70.6515 52.1352 76.1873 51.5882 79.9348 52.2933C85.6109 53.3612 91.5179 57.2173 94.4983 61.8007L95.4699 63.295L96.1132 62.0181C97.9931 58.2862 101.552 54.0967 104.813 51.7765Z" fill="#33524D"/>
</svg>
