<svg width="512" height="512" viewBox="0 0 512 512" fill="none" xmlns="http://www.w3.org/2000/svg">
<path d="M307.577 98.5485C348.277 68.9909 400.396 55.1308 444.051 62.2581C450.119 63.2484 460.242 65.2431 466.542 66.6895L478 69.3181L477.993 84.2486C477.967 139.521 454.529 191.598 416.313 221.296C402.939 231.69 380.914 242.85 365.122 247.238C345.577 252.667 295.45 252.219 286.375 246.534C281.698 243.595 293.337 213.503 307.368 192.26C324.774 165.909 346.817 146.466 376.999 130.84C393.828 122.125 395.724 120.67 396.182 116.114C396.523 112.7 395.533 109.999 393.136 107.795C389.934 104.856 388.793 104.743 381.595 106.668C369.249 109.968 344.24 122.928 332.022 132.358C300.468 156.712 279.559 187.336 270.713 222.15C267.66 234.163 267.399 241.163 267.491 308.307C267.547 348.46 267.881 381.615 268.235 382.042C268.609 382.395 277.562 379.901 288.145 376.494C330.269 362.929 376.629 356.545 408.402 359.934C445.313 363.871 482.257 376.816 503.461 393.244C519.614 405.76 511.376 430.683 491.085 430.685C487.223 430.684 480.851 427.952 471.71 422.379C455.256 412.346 435.855 405.591 413.8 402.219C375.181 396.313 340.946 401.781 268.369 425.444C181.463 453.781 138.136 457.961 82.5794 443.37C55.6815 436.304 10.9006 412.13 3.50563 400.684C-3.35762 390.057 0.171232 376.251 11.3429 370.021C19.7156 365.353 26.4818 367.079 40.1906 377.39C61.4942 393.414 87.1126 404.083 114.754 408.445C141.414 412.652 189.975 407.732 219.556 397.827L225.086 395.975V317.206C225.086 230.079 225.102 230.24 213.88 208.533C199.155 180.056 170.318 155.964 136.577 143.951C122.841 139.06 118.42 139.511 114.993 146.147C113.099 149.815 115.493 156.869 118.629 156.87C123.402 156.874 153.592 173.633 164.075 182.098C180.305 195.201 196.619 216.279 202.983 232.37C205.818 239.539 205.051 240.135 187.941 244.021C178.471 246.172 170.389 246.65 154.842 245.98C130.973 244.952 113.954 240.224 96.1371 229.674C82.898 221.833 63.1741 202.582 55.0412 189.565C44.1699 172.163 36.1608 148.003 34.0457 126.24L32.9003 114.433L40.3016 111.574C67.3546 101.124 106.283 97.1975 132.635 102.258C172.548 109.924 214.087 137.604 235.045 170.502L241.877 181.228L246.401 172.063C259.62 145.276 284.646 115.203 307.577 98.5485Z" fill="#33524D"/>
</svg>
