<svg width="192" height="192" viewBox="0 0 192 192" fill="none" xmlns="http://www.w3.org/2000/svg">
<path d="M115.341 36.9557C130.604 25.8716 150.149 20.674 166.519 23.3468C168.795 23.7181 172.591 24.4662 174.953 25.0086L179.25 25.9943L179.247 31.5932C179.238 52.3202 170.448 71.8493 156.117 82.9859C151.102 86.8837 142.843 91.0688 136.921 92.7143C129.592 94.7503 110.794 94.582 107.39 92.4501C105.637 91.3482 110.001 80.0635 115.263 72.0976C121.79 62.2159 130.057 54.9247 141.374 49.0649C147.686 45.7969 148.396 45.2514 148.568 43.5429C148.696 42.2627 148.325 41.2495 147.426 40.423C146.225 39.3211 145.798 39.2787 143.098 40.0005C138.468 41.2379 129.09 46.0981 124.508 49.6344C112.675 58.767 104.834 70.2511 101.517 83.3062C100.372 87.8111 100.275 90.4363 100.309 115.615C100.33 130.673 100.455 143.106 100.588 143.266C100.728 143.398 104.086 142.463 108.054 141.185C123.851 136.098 141.236 133.704 153.151 134.975C166.992 136.451 180.846 141.306 188.798 147.466C194.855 152.16 191.766 161.506 184.157 161.507C182.709 161.507 180.319 160.482 176.891 158.392C170.721 154.63 163.445 152.097 155.175 150.832C140.693 148.617 127.855 150.668 100.639 159.542C68.0487 170.168 51.8011 171.735 30.9673 166.264C20.8806 163.614 4.08771 154.549 1.31461 150.257C-1.25911 146.271 0.0642119 141.094 4.25358 138.758C7.39334 137.007 9.93067 137.655 15.0715 141.521C23.0603 147.53 32.6672 151.531 43.0327 153.167C53.0301 154.744 71.2408 152.899 82.3334 149.185L84.4071 148.491V118.952C84.4071 86.2796 84.4134 86.34 80.205 78.1998C74.6832 67.5209 63.8692 58.4865 51.2162 53.9815C46.0653 52.1476 44.4073 52.3165 43.1222 54.8051C42.4123 56.1806 43.31 58.8257 44.486 58.8261C46.2756 58.8278 57.597 65.1122 61.5281 68.2866C67.6143 73.2003 73.7321 81.1047 76.1185 87.1387C77.1819 89.8273 76.894 90.0506 70.478 91.5079C66.9264 92.3144 63.8958 92.4938 58.0657 92.2426C49.1147 91.8571 42.7327 90.0842 36.0514 86.1278C31.0867 83.1875 23.6903 75.9681 20.6405 71.0867C16.5637 64.5611 13.5603 55.5012 12.7672 47.34L12.3376 42.9122L15.1131 41.8401C25.258 37.9216 39.8561 36.4491 49.738 38.3469C64.7056 41.2215 80.2825 51.6014 88.1417 63.9382L90.704 67.9605L92.4003 64.5235C97.3576 54.4783 106.742 43.2011 115.341 36.9557Z" fill="#33524D"/>
</svg>
